REM DIRINDEX 1\2\6,1\2\7,1\2\8,1\2\9,1\3\10,1\3\11,1\4\12,1\4\13,1\4\14,1\5\15,1\5\16,1\5\17
REM DIRNAME cjc020,folder01,folder02,folder03,folder04,folder05,folder06,folder07,folder08,folder09,folder10,folder11,folder12,folder13,folder14,folder15,folder16
TITLE ""
FILE "1900_3_008 sec02_0116_0131.mp3" MP3
  TRACK 01 AUDIO
    TITLE "0:"
    INDEX 01 00:00:00
  TRACK 02 AUDIO
    TITLE "17:cjc020_6199"
    INDEX 01 00:00:19
  TRACK 03 AUDIO
    TITLE "0:"
    INDEX 01 00:01:26
  TRACK 04 AUDIO
    TITLE "16:cjc020_6200"
    INDEX 01 00:01:34
  TRACK 05 AUDIO
    TITLE "0:"
    INDEX 01 00:02:55
  TRACK 06 AUDIO
    TITLE "17:cjc020_6201"
    INDEX 01 00:03:33
  TRACK 07 AUDIO
    TITLE "0:"
    INDEX 01 00:04:62
  TRACK 08 AUDIO
    TITLE "16:cjc020_6202"
    INDEX 01 00:04:66
  TRACK 09 AUDIO
    TITLE "0:"
    INDEX 01 00:05:65
  TRACK 10 AUDIO
    TITLE "17:cjc020_6203"
    INDEX 01 00:06:49
  TRACK 11 AUDIO
    TITLE "0:"
    INDEX 01 00:08:03
  TRACK 12 AUDIO
    TITLE "16:cjc020_6204"
    INDEX 01 00:08:07
  TRACK 13 AUDIO
    TITLE "0:"
    INDEX 01 00:09:40
  TRACK 14 AUDIO
    TITLE "17:cjc020_6205"
    INDEX 01 00:10:25
  TRACK 15 AUDIO
    TITLE "0:"
    INDEX 01 00:11:56
  TRACK 16 AUDIO
    TITLE "16:cjc020_6206"
    INDEX 01 00:11:60
  TRACK 17 AUDIO
    TITLE "0:"
    INDEX 01 00:13:04
  TRACK 18 AUDIO
    TITLE "17:cjc020_6207"
    INDEX 01 00:13:61
  TRACK 19 AUDIO
    TITLE "0:"
    INDEX 01 00:14:68
  TRACK 20 AUDIO
    TITLE "16:cjc020_6208"
    INDEX 01 00:14:74
  TRACK 21 AUDIO
    TITLE "0:"
    INDEX 01 00:16:20
  TRACK 22 AUDIO
    TITLE "17:cjc020_6209"
    INDEX 01 00:17:08
  TRACK 23 AUDIO
    TITLE "0:"
    INDEX 01 00:19:07
  TRACK 24 AUDIO
    TITLE "16:cjc020_6210"
    INDEX 01 00:19:15
  TRACK 25 AUDIO
    TITLE "0:"
    INDEX 01 00:20:26
  TRACK 26 AUDIO
    TITLE "17:cjc020_6211"
    INDEX 01 00:21:11
  TRACK 27 AUDIO
    TITLE "0:"
    INDEX 01 00:22:25
  TRACK 28 AUDIO
    TITLE "16:cjc020_6212"
    INDEX 01 00:22:32
  TRACK 29 AUDIO
    TITLE "0:"
    INDEX 01 00:23:44
  TRACK 30 AUDIO
    TITLE "17:cjc020_6213"
    INDEX 01 00:24:27
  TRACK 31 AUDIO
    TITLE "0:"
    INDEX 01 00:25:50
  TRACK 32 AUDIO
    TITLE "16:cjc020_6214"
    INDEX 01 00:25:56
  TRACK 33 AUDIO
    TITLE "0:"
    INDEX 01 00:26:60
  TRACK 34 AUDIO
    TITLE "17:cjc020_6215"
    INDEX 01 00:27:43
  TRACK 35 AUDIO
    TITLE "0:"
    INDEX 01 00:28:74
  TRACK 36 AUDIO
    TITLE "16:cjc020_6216"
    INDEX 01 00:29:01
  TRACK 37 AUDIO
    TITLE "0:"
    INDEX 01 00:30:14
  TRACK 38 AUDIO
    TITLE "17:cjc020_6217"
    INDEX 01 00:30:71
  TRACK 39 AUDIO
    TITLE "0:"
    INDEX 01 00:32:07
  TRACK 40 AUDIO
    TITLE "16:cjc020_6218"
    INDEX 01 00:32:09
  TRACK 41 AUDIO
    TITLE "0:"
    INDEX 01 00:33:26
  TRACK 42 AUDIO
    TITLE "17:cjc020_6219"
    INDEX 01 00:34:10
  TRACK 43 AUDIO
    TITLE "0:"
    INDEX 01 00:35:35
  TRACK 44 AUDIO
    TITLE "16:cjc020_6220"
    INDEX 01 00:35:39
  TRACK 45 AUDIO
    TITLE "0:"
    INDEX 01 00:36:48
  TRACK 46 AUDIO
    TITLE "17:cjc020_6221"
    INDEX 01 00:37:30
  TRACK 47 AUDIO
    TITLE "0:"
    INDEX 01 00:38:55
  TRACK 48 AUDIO
    TITLE "16:cjc020_6222"
    INDEX 01 00:38:63
  TRACK 49 AUDIO
    TITLE "0:"
    INDEX 01 00:39:54
  TRACK 50 AUDIO
    TITLE "17:cjc020_6223"
    INDEX 01 00:40:36
  TRACK 51 AUDIO
    TITLE "0:"
    INDEX 01 00:41:32
  TRACK 52 AUDIO
    TITLE "16:cjc020_6224"
    INDEX 01 00:41:38
  TRACK 53 AUDIO
    TITLE "0:"
    INDEX 01 00:42:59
  TRACK 54 AUDIO
    TITLE "17:cjc020_6225"
    INDEX 01 00:43:46
  TRACK 55 AUDIO
    TITLE "0:"
    INDEX 01 00:44:73
  TRACK 56 AUDIO
    TITLE "16:cjc020_6226"
    INDEX 01 00:45:00
  TRACK 57 AUDIO
    TITLE "0:"
    INDEX 01 00:46:21
  TRACK 58 AUDIO
    TITLE "17:cjc020_6227"
    INDEX 01 00:47:01
  TRACK 59 AUDIO
    TITLE "0:"
    INDEX 01 00:48:20
  TRACK 60 AUDIO
    TITLE "16:cjc020_6228"
    INDEX 01 00:48:24
  TRACK 61 AUDIO
    TITLE "0:"
    INDEX 01 00:49:37
  TRACK 62 AUDIO
    TITLE "17:cjc020_6229"
    INDEX 01 00:50:19
  TRACK 63 AUDIO
    TITLE "0:"
    INDEX 01 00:51:18
  TRACK 64 AUDIO
    TITLE "16:cjc020_6230"
    INDEX 01 00:51:20
  TRACK 65 AUDIO
    TITLE "0:"
    INDEX 01 00:52:20
